# xmcd CD database file
#
# Track frame offsets:
#	150
#	21445
#	43473
#	64270
#	81531
#	101527
#	120949
#	140657
#	167089
#	187475
#	206909
#	226016
#	244870
#	265160
#	284798
#
# Disc length: 4068 seconds
#
# Revision: 0
# Processed by: cddbd v1.5.2PL0 Copyright (c) Steve Scherf et al.
# Submitted via: CDex 1.70beta2
#
DISCID=ef0fe20f
DTITLE=Wolfgang Buschner liest Karl May - Der Ölprinz
DYEAR=2006
DGENRE=Hörbuch Karl May
TTITLE0=Der Ölprinz-CD09-01
TTITLE1=Der Ölprinz-CD09-02
TTITLE2=Der Ölprinz-CD09-03
TTITLE3=Der Ölprinz-CD09-04
TTITLE4=Der Ölprinz-CD09-05
TTITLE5=Der Ölprinz-CD09-06
TTITLE6=Der Ölprinz-CD09-07
TTITLE7=Der Ölprinz-CD09-08
TTITLE8=Der Ölprinz-CD09-09
TTITLE9=Der Ölprinz-CD09-10
TTITLE10=Der Ölprinz-CD09-11
TTITLE11=Der Ölprinz-CD09-12
TTITLE12=Der Ölprinz-CD09-13
TTITLE13=Der Ölprinz-CD09-14
TTITLE14=Der Ölprinz-CD09-15 bws
EXTD=YEAR: 2006
EXTT0=
EXTT1=
EXTT2=
EXTT3=
EXTT4=
EXTT5=
EXTT6=
EXTT7=
EXTT8=
EXTT9=
EXTT10=
EXTT11=
EXTT12=
EXTT13=
EXTT14=
PLAYORDER=
